<svg xmlns="http://www.w3.org/2000/svg" xmlns:xlink="http://www.w3.org/1999/xlink" version="1.1" x="0px" y="0px" viewBox="0 0 512 640" enable-background="new 0 0 512 512" xml:space="preserve"><g><path d="M420.5,121.9h-30.5V91.5c0-7.8-6.3-14.1-14.1-14.1c-7.8,0-14.1,6.3-14.1,14.1v30.5h-30.5c-7.8,0-14.1,6.3-14.1,14.1   s6.3,14.1,14.1,14.1h30.5v30.5c0,7.8,6.3,14.1,14.1,14.1c7.8,0,14.1-6.3,14.1-14.1v-30.5h30.5c7.8,0,14.1-6.3,14.1-14.1   S428.3,121.9,420.5,121.9z"/><path d="M87.3,184.9c5.5,5.5,14.4,5.5,20,0l28.8-28.8l28.8,28.8c5.5,5.5,14.4,5.5,20,0c5.5-5.5,5.5-14.4,0-20L156,136.1l28.9-28.9   c5.5-5.5,5.5-14.4,0-20c-5.5-5.5-14.4-5.5-20,0l-28.9,28.9l-28.8-28.8c-5.5-5.5-14.4-5.5-20,0c-5.5,5.5-5.5,14.4,0,20l28.8,28.8   l-28.8,28.8C81.7,170.4,81.7,179.4,87.3,184.9z"/><path d="M453.6,2H58.4C27.3,2,2,27.3,2,58.4v395.1C2,484.7,27.3,510,58.4,510h395.1c31.1,0,56.4-25.3,56.4-56.4V58.4   C510,27.3,484.7,2,453.6,2z M241.9,481.8H58.4c-15.6,0-28.2-12.7-28.2-28.2V270.1h211.7V481.8z M241.9,241.9H30.2V58.4   c0-15.6,12.7-28.2,28.2-28.2h183.4V241.9z M481.8,453.6c0,15.6-12.7,28.2-28.2,28.2H270.1V270.1h211.7V453.6z M481.8,241.9H270.1   V30.2h183.4c15.6,0,28.2,12.7,28.2,28.2V241.9z"/><path d="M331.4,390.1h89.2c7.8,0,14.1-6.3,14.1-14.1c0-7.8-6.3-14.1-14.1-14.1h-89.2c-7.8,0-14.1,6.3-14.1,14.1   C317.2,383.7,323.6,390.1,331.4,390.1z"/><path d="M91.5,390.1h89.2c7.8,0,14.1-6.3,14.1-14.1c0-7.8-6.3-14.1-14.1-14.1H91.5c-7.8,0-14.1,6.3-14.1,14.1   C77.4,383.7,83.7,390.1,91.5,390.1z"/><path d="M132,348.7h8.1c7.8,0,14.1-6.3,14.1-14.1s-6.3-14.1-14.1-14.1H132c-7.8,0-14.1,6.3-14.1,14.1S124.2,348.7,132,348.7z"/><path d="M140.1,403.2H132c-7.8,0-14.1,6.3-14.1,14.1s6.3,14.1,14.1,14.1h8.1c7.8,0,14.1-6.3,14.1-14.1S147.9,403.2,140.1,403.2z"/></g></svg>